<svg xmlns="http://www.w3.org/2000/svg" viewBox="0 0 900 440" role="img" aria-label="Topología física: tres nodos k3s en un segmento aislado de la red del Politécnico; el tráfico HTTPS entra por el borde de red hacia Traefik en el nodo 1." style="max-width:100%;height:auto;font-family:'DejaVu Sans', sans-serif"><rect x="0" y="0" width="900" height="440" style="fill:#ffffff"/><rect x="246" y="8" width="646" height="424" rx="10" style="fill:none;stroke:#7d8b91;stroke-width:1.2;stroke-dasharray:5 4"/><text x="262" y="28" text-anchor="start" style="fill:#56646b;font-size:11px;font-weight:700">POLITÉCNICO SANTIAGO MARIÑO</text><rect x="478" y="36" width="404" height="384" rx="10" style="fill:none;stroke:#0b6e7f;stroke-width:1.2;stroke-dasharray:5 4"/><text x="494" y="54" text-anchor="start" style="fill:#0b6e7f;font-size:11px;font-weight:700">Segmento de red aislado</text><rect x="16" y="64" width="150" height="50" rx="6" style="fill:#eef3f4;stroke:#7d8b91;stroke-width:1.2"/><text x="91.0" y="84.0" text-anchor="middle" style="fill:#1f2a30;font-size:12px;font-weight:700">Estudiantes</text><text x="91.0" y="102.0" text-anchor="middle" style="fill:#56646b;font-size:11px">y docentes</text><rect x="16" y="150" width="150" height="50" rx="6" style="fill:#eef3f4;stroke:#7d8b91;stroke-width:1.2"/><text x="91.0" y="170.0" text-anchor="middle" style="fill:#1f2a30;font-size:12px;font-weight:700">GitHub / GitLab</text><text x="91.0" y="188.0" text-anchor="middle" style="fill:#56646b;font-size:11px">repositorios</text><rect x="262" y="64" width="200" height="64" rx="6" style="fill:#eef3f4;stroke:#7d8b91;stroke-width:1.2"/><text x="362.0" y="82.0" text-anchor="middle" style="fill:#1f2a30;font-size:12px;font-weight:700">Borde de red</text><text x="362.0" y="100.0" text-anchor="middle" style="fill:#56646b;font-size:11px">*.paas.psm.edu.ve → :80/:443</text><text x="362.0" y="118.0" text-anchor="middle" style="fill:#56646b;font-size:11px">IP pública o Cloudflare Tunnel</text><rect x="262" y="204" width="200" height="56" rx="6" style="fill:#eef3f4;stroke:#7d8b91;stroke-width:1.2"/><text x="362.0" y="227.0" text-anchor="middle" style="fill:#1f2a30;font-size:12px;font-weight:700">Administración (DTI)</text><text x="362.0" y="245.0" text-anchor="middle" style="fill:#56646b;font-size:11px">SSH con llave, sin contraseña</text><rect x="496" y="64" width="370" height="110" rx="6" style="fill:#eef3f4;stroke:#7d8b91;stroke-width:1.2"/><text x="512" y="86" text-anchor="start" style="fill:#1f2a30;font-size:13px;font-weight:700">Nodo 1 · servidor k3s (plano de control)</text><text x="512" y="110" text-anchor="start" style="fill:#56646b;font-size:11px">Traefik (entrada HTTPS) · API del PaaS · panel web</text><text x="512" y="130" text-anchor="start" style="fill:#56646b;font-size:11px">PostgreSQL · Redis (cola) · registro de imágenes</text><text x="512" y="156" text-anchor="start" style="fill:#b3362c;font-size:11px;font-weight:700">Punto único de falla</text><rect x="496" y="204" width="370" height="36" rx="6" style="fill:#eef3f4;stroke:#7d8b91;stroke-width:1.2"/><text x="681.0" y="226.0" text-anchor="middle" style="fill:#1f2a30;font-size:12px;font-weight:700">Switch Gigabit · cable Cat6 · IPs estáticas</text><rect x="496" y="268" width="175" height="84" rx="6" style="fill:#eef3f4;stroke:#7d8b91;stroke-width:1.2"/><text x="512" y="290" text-anchor="start" style="fill:#1f2a30;font-size:12px;font-weight:700">Nodo 2 · agente k3s</text><text x="512" y="314" text-anchor="start" style="fill:#56646b;font-size:11px">Apps de estudiantes</text><text x="512" y="334" text-anchor="start" style="fill:#56646b;font-size:11px">Jobs de compilación</text><rect x="691" y="268" width="175" height="84" rx="6" style="fill:#eef3f4;stroke:#7d8b91;stroke-width:1.2"/><text x="707" y="290" text-anchor="start" style="fill:#1f2a30;font-size:12px;font-weight:700">Nodo 3 · agente k3s</text><text x="707" y="314" text-anchor="start" style="fill:#56646b;font-size:11px">Apps de estudiantes</text><text x="707" y="334" text-anchor="start" style="fill:#56646b;font-size:11px">Jobs de compilación</text><rect x="496" y="374" width="370" height="34" rx="6" style="fill:#eef3f4;stroke:#7d8b91;stroke-width:1.2"/><text x="681.0" y="395.0" text-anchor="middle" style="fill:#1f2a30;font-size:12px;font-weight:700">UPS · respaldo eléctrico (no es alta disponibilidad)</text><polyline points="681,174 681,204" style="fill:none;stroke:#7d8b91;stroke-width:1.5"/><polyline points="583,240 583,268" style="fill:none;stroke:#7d8b91;stroke-width:1.5"/><polyline points="778,240 778,268" style="fill:none;stroke:#7d8b91;stroke-width:1.5"/><polyline points="166,89 254.0,89.0" style="fill:none;stroke:#0b6e7f;stroke-width:2"/><polygon points="262.0,89.0 252.0,93.5 252.0,84.5" style="fill:#0b6e7f"/><text x="214" y="81" text-anchor="middle" style="fill:#0b6e7f;font-size:11px;font-weight:700">HTTPS</text><polyline points="462,96 488.0,96.0" style="fill:none;stroke:#0b6e7f;stroke-width:2"/><polygon points="496.0,96.0 486.0,100.5 486.0,91.5" style="fill:#0b6e7f"/><polyline points="166,175 362,175 362.0,136.0" style="fill:none;stroke:#7d8b91;stroke-width:1.5"/><polygon points="362.0,128.0 366.5,138.0 357.5,138.0" style="fill:#7d8b91"/><text x="214" y="167" text-anchor="middle" style="fill:#56646b;font-size:11px">webhook</text><polyline points="462,222 488.0,222.0" style="fill:none;stroke:#7d8b91;stroke-width:1.5"/><polygon points="496.0,222.0 486.0,226.5 486.0,217.5" style="fill:#7d8b91"/></svg>